<?xml version="1.0" encoding="UTF-8"?>
<svg id="Layer_1" data-name="Layer 1" xmlns="http://www.w3.org/2000/svg" viewBox="0 0 1360 293">
  <defs>
    <style>
      .cls-1 {
        fill: #f15722;
      }

      .cls-1, .cls-2, .cls-3 {
        stroke-width: 0px;
      }

      .cls-2 {
        fill: #f15822;
      }

      .cls-3 {
        fill: #fff8f3;
      }
    </style>
  </defs>
  <path class="cls-3" d="m207.4,51.64c-9.56-25.1-28.1-36.79-58.35-36.79s-49.1,11.66-59.03,36.7L0,279.42h64.98l79.21-200.99c1.26-2.82,2.35-3.12,4.5-3.12,2.43,0,3.15.5,4.03,2.85l75.98,201.26h65.26L207.4,51.64Z"/>
  <path class="cls-3" d="m485.5,178.46c34.78-14.7,47.48-48.84,47.48-77.59,0-39.19-22.71-81.07-86.46-81.07h-140.07v59.24h141.51c22.95,0,25.42,16.52,25.42,23.62,0,7.64-2.48,25.42-25.42,25.42h-94.62c-31.31,0-46.53,15.34-46.53,46.89v104.45h59.24v-93.9h56.25l55.4,93.9h66.52l-58.71-100.97Z"/>
  <path class="cls-2" d="m749.86,149.07c17-12.12,25.6-30.8,25.6-55.76,0-46.72-32.7-73.51-89.7-73.51h-129.63v59.24h129.63c25.37,0,28.3,12.46,28.3,21.82,0,10.04-2.21,20.75-28.66,20.75h-82.15v55.28h83.23c25.4,0,28.66,11.09,28.66,20.75s-2.93,22.54-28.3,22.54h-131.07v59.24h131.07c55.94,0,89.34-27.48,89.34-73.51,0-25.44-8.84-44.5-26.32-56.85Z"/>
  <path class="cls-3" d="m1007.36,19.8v200.51c0,2.74-.73,5.28-6,5.28-3.12,0-5.66-.91-7.9-5.31l-70.67-154.61c-8.57-23.44-23.96-50.18-66.78-50.18-40.17,0-64.16,22.91-64.16,61.28v202.67h59.24V78.92c0-3.74.98-5.64,6.36-5.64,3.47,0,5.22.52,7.48,5.53l70.74,154.76c8.57,23.43,24,50.18,67.13,50.18,40.17,0,64.16-23.04,64.16-61.64V19.8h-59.6Z"/>
  <path class="cls-3" d="m1273.65,52.19c-9.54-25.04-28.04-36.71-58.21-36.71s-48.98,11.63-58.89,36.61l-89.8,227.34h64.83l79.02-200.51c1.26-2.82,2.35-3.12,4.48-3.12,2.43,0,3.14.5,4.02,2.84l75.8,200.78h65.1l-86.35-227.24Z"/>
  <path class="cls-1" d="m147.02,234.54c20.06,0,36.32-16.26,36.32-36.32,0-15.87-10.18-29.35-24.36-34.29,5.5,4.62,9.1,12.29,9.1,20.97,0,14.12-9.52,25.57-21.27,25.57s-21.27-11.45-21.27-25.57c0-8.52,3.47-16.06,8.8-20.71-13.8,5.15-23.63,18.44-23.63,34.03,0,20.06,16.26,36.32,36.32,36.32Z"/>
</svg>