<svg width="22" height="22" viewBox="0 0 22 22" fill="none" xmlns="http://www.w3.org/2000/svg">
<path d="M11 22C4.93519 22 0 17.0648 0 11C0 4.93519 4.93519 0 11 0C17.0648 0 22 4.93519 22 11C22 17.0648 17.0648 22 11 22ZM11 1.03019C5.50423 1.03019 1.03231 5.50212 1.03231 10.9979C1.03231 16.4937 5.50423 20.9656 11 20.9656C16.4958 20.9656 20.9677 16.4937 20.9677 10.9979C20.9677 5.50212 16.4958 1.03019 11 1.03019Z" fill="#989898"/>
<path fill-rule="evenodd" clip-rule="evenodd" d="M9.49596 18.1881H12.2819V11.7615H14.3402L14.7527 9.16594H12.284V7.20286C12.284 6.47517 12.98 6.06267 13.6442 6.06267H14.8479V3.90921L12.6944 3.81402C10.6362 3.68709 9.49807 5.30113 9.49807 7.23248V9.16383H7.15634V11.7594H9.49807V18.1859L9.49596 18.1881Z" fill="#989898"/>
</svg>
