<svg width="23" height="22" viewBox="0 0 23 22" fill="none" xmlns="http://www.w3.org/2000/svg">
<path d="M11.7333 22C5.66641 22 0.733337 17.0648 0.733337 11C0.733337 4.93519 5.66853 0 11.7333 0C17.7981 0 22.7333 4.93519 22.7333 11C22.7333 17.0648 17.7981 22 11.7333 22ZM11.7333 1.03019C6.23757 1.03019 1.76565 5.50212 1.76565 10.9979C1.76565 16.4937 6.23757 20.9656 11.7333 20.9656C17.2291 20.9656 21.701 16.4937 21.701 10.9979C21.701 5.50212 17.2291 1.03019 11.7333 1.03019Z" fill="#989898"/>
<path fill-rule="evenodd" clip-rule="evenodd" d="M8.72947 4.49512H14.7372C16.6664 4.49512 18.255 6.08166 18.255 8.013V13.989C18.255 15.9182 16.6685 17.5068 14.7372 17.5068H8.72947C6.80024 17.5068 5.21159 15.9203 5.21159 13.989V8.013C5.21159 6.08377 6.79812 4.49512 8.72947 4.49512ZM15.2343 6.76704C15.6383 6.76704 15.981 7.10973 15.981 7.51377C15.981 7.91781 15.6383 8.2605 15.2343 8.2605C14.7985 8.2605 14.4875 7.91781 14.4875 7.51377C14.4875 7.10973 14.7985 6.76704 15.2343 6.76704ZM11.7164 7.45243H11.7481C13.6774 7.45243 15.2956 9.07069 15.2956 10.9999C15.2956 12.9609 13.6774 14.5474 11.7481 14.5474H11.7164C9.78716 14.5474 8.19851 12.9609 8.19851 10.9999C8.19851 9.07069 9.78505 7.45243 11.7164 7.45243ZM11.7164 8.66666H11.7481C13.0237 8.66666 14.0814 9.72435 14.0814 10.9999C14.0814 12.3072 13.0237 13.3649 11.7481 13.3649H11.7164C10.4408 13.3649 9.38312 12.3072 9.38312 10.9999C9.38312 9.72435 10.4408 8.66666 11.7164 8.66666ZM8.75909 5.61627H14.7033C16.0424 5.61627 17.1318 6.70569 17.1318 8.04473V13.9572C17.1318 15.2963 16.0424 16.3857 14.7033 16.3857H8.75909C7.42005 16.3857 6.33062 15.2963 6.33062 13.9572V8.04473C6.33062 6.70569 7.42005 5.61627 8.75909 5.61627Z" fill="#989898"/>
</svg>
