<svg width="23" height="22" viewBox="0 0 23 22" fill="none" xmlns="http://www.w3.org/2000/svg">
<path d="M11.2 22C5.13309 22 0.200012 17.0648 0.200012 11C0.200012 4.93519 5.1352 0 11.2 0C17.2648 0 22.2 4.93519 22.2 11C22.2 17.0648 17.2648 22 11.2 22ZM11.2 1.03019C5.70424 1.03019 1.23232 5.50212 1.23232 10.9979C1.23232 16.4937 5.70424 20.9656 11.2 20.9656C16.6958 20.9656 21.1677 16.4937 21.1677 10.9979C21.1677 5.50212 16.6958 1.03019 11.2 1.03019Z" fill="#989898"/>
<path fill-rule="evenodd" clip-rule="evenodd" d="M5.63653 9.09604H7.93595V16.8193H5.63653V9.09604ZM6.77249 5.17834C7.8746 5.17834 8.6848 6.47084 7.76249 7.6195C6.58845 8.44661 5.41018 7.64911 5.41018 6.57027C5.41018 5.8045 6.00672 5.17834 6.77249 5.17834ZM9.29826 9.09604H11.5702V10.1749C12.0525 9.46411 12.8479 9.01142 13.7554 9.01142H14.3794C15.8263 9.01142 16.9919 10.2045 16.9919 11.6239V16.8193H14.72V16.1085V12.6457C14.6925 11.7657 14.0959 11.0845 13.2159 11.0845C12.3359 11.0845 11.5977 11.7657 11.5702 12.6457V16.8193H9.29826V9.09604Z" fill="#989898"/>
</svg>
