<svg width="125" height="45" viewBox="0 0 125 45" fill="none" xmlns="http://www.w3.org/2000/svg">
<path d="M0 44.497L4.29187 0.0784912H19.3596L23.573 44.497H15.1692L14.537 37.3301H9.18829L8.6345 44.497H0.0046159H0ZM9.81592 30.2369H13.854L11.9111 7.64695H11.505L9.81592 30.2369Z" fill="#FFF8F3"/>
<path d="M26.3004 44.497V0.0784912H39.9282C42.1987 0.0784912 43.9155 0.595362 45.0785 1.6291C46.2414 2.66284 47.0167 4.11192 47.4136 5.97173C47.8105 7.83154 48.0089 10.0144 48.0089 12.5203C48.0089 15.0262 47.6997 16.8768 47.0859 18.3259C46.4722 19.7749 45.3138 20.7718 43.6155 21.3302C45.0138 21.6163 45.9922 22.3085 46.5552 23.4115C47.1182 24.5144 47.3998 25.9405 47.3998 27.6895V44.497H38.6406V27.108C38.6406 25.8112 38.3776 25.0082 37.8469 24.699C37.3162 24.3898 36.4624 24.2329 35.2856 24.2329V44.497H26.3004ZM35.3364 16.5353H37.4823C38.7099 16.5353 39.3237 15.1969 39.3237 12.5203C39.3237 10.7897 39.1898 9.64982 38.9175 9.11449C38.6499 8.57454 38.1422 8.30688 37.4039 8.30688H35.3364V16.5353Z" fill="#FFF8F3"/>
<path d="M61.1799 45C57.2572 45 54.4098 43.9663 52.6238 41.8942C50.8425 39.8267 49.9472 36.7024 49.9472 32.5305V27.8879H59.057V32.5582C59.057 33.735 59.2047 34.7318 59.5001 35.5487C59.7954 36.3655 60.4553 36.7716 61.4799 36.7716C62.5044 36.7716 63.1874 36.3286 63.4735 35.4471C63.7596 34.5657 63.9027 33.1212 63.9027 31.1183V30.0062C63.9027 28.474 63.6442 27.1357 63.132 25.9912C62.6197 24.8467 61.6137 24.2744 60.1138 24.2744C59.9292 24.2744 59.7631 24.2744 59.62 24.2883C59.477 24.2975 59.357 24.3114 59.2555 24.3252V16.3506C60.7876 16.3506 61.9552 16.0091 62.7628 15.3307C63.5704 14.6523 63.9719 13.5078 63.9719 11.9111C63.9719 9.40519 63.2474 8.14993 61.8029 8.14993C60.8615 8.14993 60.2246 8.51451 59.8969 9.24828C59.5693 9.98205 59.4031 10.9097 59.4031 12.0357V13.374H50.2149C50.1964 13.171 50.1872 12.9264 50.1779 12.6402C50.1687 12.3541 50.1641 12.0772 50.1641 11.8096C50.1641 7.73921 51.1148 4.75336 53.0161 2.85202C54.9174 0.950672 57.8295 0 61.7475 0C69.3206 0 73.1048 3.93652 73.1048 11.8096C73.1048 13.997 72.8095 15.8015 72.2234 17.2229C71.6327 18.6442 70.5389 19.6411 68.9422 20.2133C70.202 20.8179 71.1389 21.5932 71.7434 22.5346C72.348 23.4761 72.7448 24.6482 72.9294 26.0419C73.114 27.4403 73.2063 29.1293 73.2063 31.1137C73.2063 35.5533 72.2787 38.9775 70.4189 41.3865C68.5591 43.7909 65.4764 44.9954 61.1707 44.9954L61.1799 45Z" fill="#FF6D3B"/>
<path d="M76.4737 44.497V0.0784912H85.6112L89.7 21.3532V0.0784912H98.2792V44.497H89.5985L85.159 22.2901V44.497H76.4783H76.4737Z" fill="#FFF8F3"/>
<path d="M101.002 44.497L105.294 0.0784912H120.362L124.575 44.497H116.171L115.539 37.3301H110.19L109.636 44.497H101.007H101.002ZM110.818 30.2369H114.856L112.913 7.64695H112.507L110.818 30.2369Z" fill="#FFF8F3"/>
</svg>
