<svg width="36" height="36" viewBox="0 0 36 36" fill="none" xmlns="http://www.w3.org/2000/svg">
<rect x="0.5" y="0.5" width="35" height="35" rx="17.5" stroke="#FFF8F3"/>
<path d="M27.6175 26.2991C27.6101 26.6803 27.3667 26.9369 27.0238 26.9917C26.7431 27.0366 26.4233 26.873 26.317 26.5964C26.2622 26.4569 26.2464 26.295 26.2431 26.1422C26.234 25.5932 26.2506 25.0435 26.2332 24.4954C26.1551 22.1369 24.5673 20.2443 22.2611 19.7701C21.9297 19.702 21.5834 19.6812 21.2429 19.6771C20.2688 19.6646 19.2947 19.6721 18.3206 19.6721C17.3464 19.6721 16.3723 19.6696 15.3982 19.6729C12.5854 19.6829 10.4395 21.8005 10.3947 24.6116C10.3855 25.1913 10.4038 25.7718 10.3781 26.3514C10.3623 26.7285 10.06 26.9942 9.71038 27C9.36242 27.005 9.03273 26.7418 9.02608 26.3689C9.00532 25.2527 8.92477 24.1308 9.2146 23.0313C9.95204 20.2276 12.4218 18.311 15.3276 18.3002C17.2758 18.2935 19.2241 18.2985 21.1732 18.2993C24.6769 18.301 27.3568 20.7849 27.6026 24.2794C27.6491 24.9505 27.63 25.6265 27.6175 26.2991Z" fill="#FFF8F3"/>
<path d="M18.3546 7.00003C15.6017 6.99089 13.3636 9.20821 13.3511 11.957C13.3395 14.6759 15.5693 16.9132 18.3089 16.9298C21.0079 16.9456 23.2693 14.705 23.2826 12.0019C23.2958 9.26801 21.0702 7.00916 18.3546 7.00003ZM18.2824 15.5488C16.2768 15.5064 14.6807 13.8696 14.7305 11.9072C14.7803 9.92241 16.4014 8.34869 18.3654 8.37942C20.3311 8.41014 21.9505 10.0711 21.9023 12.0069C21.8533 14.0016 20.2298 15.5894 18.2824 15.5488Z" fill="#FFF8F3"/>
</svg>
