<svg width="23" height="22" viewBox="0 0 23 22" fill="none" xmlns="http://www.w3.org/2000/svg">
<path d="M11.4677 0C5.40139 0 0.466675 4.93472 0.466675 11.0011C0.466675 17.0674 5.40139 22 11.4677 22C17.5341 22 22.4667 17.0653 22.4667 11.0011C22.4667 4.93683 17.532 0 11.4677 0ZM11.4677 20.9678C5.97038 20.9678 1.501 16.4963 1.501 11.0011C1.501 5.50582 5.97038 1.03221 11.4677 1.03221C16.9651 1.03221 21.4345 5.5037 21.4345 11.0011C21.4345 16.4984 16.963 20.9678 11.4677 20.9678Z" fill="#989898"/>
<path d="M12.8764 10.2607L12.7897 10.1443L16.9799 5.35132H15.0868L11.9162 8.99155L9.1643 5.35132H5.22795L9.80943 11.4092L9.93634 11.5784L5.49658 16.6485H7.40659L10.7866 12.7016L13.7712 16.6485H17.7075L12.8764 10.2607ZM11.5439 11.8153L10.5709 10.5356L7.49331 6.4914H8.61647L11.1695 9.84819L12.1404 11.1215L15.4612 15.4873H14.338L11.5439 11.8153Z" fill="#989898"/>
</svg>
