<svg width="23" height="22" viewBox="0 0 23 22" fill="none" xmlns="http://www.w3.org/2000/svg">
<path d="M11.9334 22C5.86643 22 0.93335 17.0648 0.93335 11C0.93335 4.93519 5.86854 0 11.9334 0C17.9982 0 22.9334 4.93519 22.9334 11C22.9334 17.0648 17.9982 22 11.9334 22ZM11.9334 1.03019C6.43758 1.03019 1.96566 5.50212 1.96566 10.9979C1.96566 16.4937 6.43758 20.9656 11.9334 20.9656C17.4291 20.9656 21.901 16.4937 21.901 10.9979C21.901 5.50212 17.4291 1.03019 11.9334 1.03019Z" fill="#989898"/>
<path fill-rule="evenodd" clip-rule="evenodd" d="M15.5358 6.8728H8.31181C7.09123 6.8728 6.15412 7.81203 6.15412 9.0305V12.9715C6.15412 14.192 7.09335 15.1291 8.31181 15.1291H15.5358C16.7564 15.1291 17.7866 14.192 17.7866 12.9715V9.0305C17.7866 7.80992 16.7543 6.8728 15.5358 6.8728ZM13.8478 10.9999L10.7508 9.21665V12.7811L13.8478 10.9978V10.9999Z" fill="#989898"/>
</svg>
